# Blender v2.79 (sub 0) OBJ File: ''
# www.blender.org

o Bowl_Hold
v 0.013224 0.000000 -0.134267
v 0.013224 0.135569 -0.134267
v 0.026448 0.135569 -0.132964
v 0.026448 0.000000 -0.132964
v 0.039164 0.000000 -0.129107
v 0.039164 0.135569 -0.129107
v 0.051880 0.135569 -0.125250
v 0.051880 0.000000 -0.125250
v 0.063599 0.000000 -0.118986
v 0.063599 0.135569 -0.118986
v 0.075318 0.135569 -0.112722
v 0.075318 0.000000 -0.112722
v 0.085590 0.000000 -0.104292
v 0.085590 0.135569 -0.104292
v 0.095862 0.135569 -0.095862
v 0.095862 0.000000 -0.095862
v 0.104292 0.000000 -0.085590
v 0.104292 0.135569 -0.085590
v 0.112722 0.135569 -0.075318
v 0.112722 0.000000 -0.075318
v 0.118986 0.000000 -0.063599
v 0.118986 0.135569 -0.063599
v 0.125250 0.135569 -0.051880
v 0.125250 0.000000 -0.051880
v 0.129107 0.000000 -0.039164
v 0.129107 0.135569 -0.039164
v 0.132964 0.135569 -0.026448
v 0.132964 0.000000 -0.026448
v 0.134267 0.000000 -0.013224
v 0.134267 0.135569 -0.013224
v 0.135569 0.135569 0.000000
v 0.135569 0.000000 0.000000
v 0.134267 0.000000 0.013224
v 0.134267 0.135569 0.013224
v 0.132964 0.135569 0.026448
v 0.132964 0.000000 0.026448
v 0.129107 0.000000 0.039164
v 0.129107 0.135569 0.039164
v 0.125250 0.135569 0.051880
v 0.125250 0.000000 0.051880
v 0.118986 0.000000 0.063599
v 0.118986 0.135569 0.063599
v 0.112722 0.135569 0.075318
v 0.112722 0.000000 0.075318
v 0.104292 0.000000 0.085590
v 0.104292 0.135569 0.085590
v 0.095862 0.135569 0.095862
v 0.095862 0.000000 0.095862
v 0.085590 0.000000 0.104292
v 0.085590 0.135569 0.104292
v 0.075318 0.135569 0.112722
v 0.075318 0.000000 0.112722
v 0.063599 0.000000 0.118986
v 0.063599 0.135569 0.118986
v 0.051880 0.135569 0.125250
v 0.051880 0.000000 0.125250
v 0.039164 0.000000 0.129107
v 0.039164 0.135569 0.129107
v 0.026448 0.135569 0.132964
v 0.026448 0.000000 0.132964
v 0.013224 0.000000 0.134267
v 0.013224 0.135569 0.134267
v -0.000000 0.135569 0.135569
v -0.000000 0.000000 0.135569
v -0.013224 0.000000 0.134267
v -0.013224 0.135569 0.134267
v -0.026448 0.135569 0.132964
v -0.026448 0.000000 0.132964
v -0.039164 0.000000 0.129107
v -0.039164 0.135569 0.129107
v -0.051880 0.135569 0.125250
v -0.051880 0.000000 0.125250
v -0.063599 0.000000 0.118986
v -0.063599 0.135569 0.118986
v -0.075318 0.135569 0.112722
v -0.075318 0.000000 0.112722
v -0.085590 0.000000 0.104292
v -0.085590 0.135569 0.104292
v -0.095862 0.135569 0.095862
v -0.095862 0.000000 0.095862
v -0.104292 0.000000 0.085590
v -0.104292 0.135569 0.085590
v -0.112722 0.135569 0.075318
v -0.112722 0.000000 0.075318
v -0.118986 0.000000 0.063599
v -0.118986 0.135569 0.063599
v -0.125250 0.135569 0.051880
v -0.125250 0.000000 0.051880
v -0.129107 0.000000 0.039164
v -0.129107 0.135569 0.039164
v -0.132964 0.135569 0.026448
v -0.132964 0.000000 0.026448
v -0.134267 0.000000 0.013224
v -0.134267 0.135569 0.013224
v -0.135569 0.135569 -0.000000
v -0.135569 0.000000 -0.000000
v -0.134267 0.000000 -0.013224
v -0.134267 0.135569 -0.013224
v -0.132964 0.135569 -0.026448
v -0.132964 0.000000 -0.026448
v -0.129107 0.000000 -0.039164
v -0.129107 0.135569 -0.039164
v -0.125250 0.135569 -0.051880
v -0.125250 0.000000 -0.051880
v -0.118986 0.000000 -0.063599
v -0.118986 0.135569 -0.063599
v -0.112722 0.135569 -0.075318
v -0.112722 0.000000 -0.075318
v -0.104292 0.000000 -0.085590
v -0.104292 0.135569 -0.085590
v -0.095862 0.135569 -0.095862
v -0.095862 0.000000 -0.095862
v -0.085590 0.000000 -0.104292
v -0.085590 0.135569 -0.104292
v -0.075318 0.135569 -0.112722
v -0.075318 0.000000 -0.112722
v -0.063599 0.000000 -0.118986
v -0.063599 0.135569 -0.118986
v -0.051880 0.135569 -0.125250
v -0.051880 0.000000 -0.125250
v 0.028838 0.048277 -0.095067
v 0.019475 0.048277 -0.097907
v 0.009737 0.048277 -0.098866
v -0.000000 0.048277 -0.099826
v -0.009738 0.048277 -0.098867
v -0.019475 0.048277 -0.097907
v -0.028838 0.048277 -0.095067
v -0.038202 0.048277 -0.092227
v -0.046831 0.048277 -0.087614
v -0.055460 0.048277 -0.083002
v -0.063024 0.048277 -0.076795
v -0.070587 0.048277 -0.070587
v -0.076795 0.048277 -0.063024
v -0.083002 0.048277 -0.055460
v -0.087614 0.048277 -0.046831
v -0.092227 0.048277 -0.038202
v -0.095067 0.048277 -0.028838
v -0.097907 0.048277 -0.019475
v -0.098866 0.048277 -0.009738
v -0.099826 0.048277 -0.000000
v -0.098867 0.048277 0.009738
v -0.097907 0.048277 0.019475
v -0.095067 0.048277 0.028838
v -0.092227 0.048277 0.038202
v -0.087614 0.048277 0.046831
v -0.083002 0.048277 0.055460
v -0.076795 0.048277 0.063024
v -0.070587 0.048277 0.070587
v -0.063024 0.048277 0.076795
v -0.055460 0.048277 0.083002
v -0.046831 0.048277 0.087614
v -0.038202 0.048277 0.092227
v -0.028838 0.048277 0.095067
v -0.019475 0.048277 0.097907
v -0.009738 0.048277 0.098867
v -0.000000 0.048277 0.099826
v 0.009738 0.048277 0.098867
v 0.019475 0.048277 0.097907
v 0.028838 0.048277 0.095067
v 0.038202 0.048277 0.092227
v 0.046831 0.048277 0.087614
v 0.055460 0.048277 0.083002
v 0.063024 0.048277 0.076795
v 0.070587 0.048277 0.070587
v 0.076795 0.048277 0.063024
v 0.083002 0.048277 0.055460
v 0.087614 0.048277 0.046831
v 0.092227 0.048277 0.038202
v 0.095067 0.048277 0.028838
v 0.097907 0.048277 0.019475
v 0.098866 0.048277 0.009738
v 0.099826 0.048277 0.000000
v 0.098867 0.048277 -0.009737
v 0.097907 0.048277 -0.019475
v 0.095067 0.048277 -0.028838
v 0.092227 0.048277 -0.038202
v 0.087614 0.048277 -0.046831
v 0.083002 0.048277 -0.055460
v 0.076795 0.048277 -0.063024
v 0.070587 0.048277 -0.070587
v 0.063024 0.048277 -0.076795
v 0.055460 0.048277 -0.083002
v 0.046831 0.048277 -0.087614
v 0.038202 0.048277 -0.092227
v -0.039164 0.000000 -0.129107
v -0.039164 0.135569 -0.129107
v -0.026448 0.135569 -0.132964
v -0.026448 0.000000 -0.132964
v -0.013224 0.000000 -0.134267
v -0.013224 0.135569 -0.134267
v 0.000000 0.135569 -0.135569
v 0.000000 0.000000 -0.135569
v -0.000000 0.127943 -0.116705
v 0.011384 0.127943 -0.115584
v 0.022768 0.127943 -0.114462
v 0.033714 0.127943 -0.111142
v 0.044661 0.127943 -0.107821
v 0.054749 0.127943 -0.102429
v 0.064838 0.127943 -0.097036
v 0.073680 0.127943 -0.089780
v 0.082523 0.127943 -0.082523
v 0.089780 0.127943 -0.073680
v 0.097036 0.127943 -0.064838
v 0.102429 0.127943 -0.054749
v 0.107821 0.127943 -0.044661
v 0.111142 0.127943 -0.033714
v 0.114462 0.127943 -0.022768
v 0.115584 0.127943 -0.011384
v 0.116705 0.127943 0.000000
v 0.115584 0.127943 0.011384
v 0.114462 0.127943 0.022768
v 0.111142 0.127943 0.033714
v 0.107821 0.127943 0.044661
v 0.102429 0.127943 0.054749
v 0.097036 0.127943 0.064838
v 0.089780 0.127943 0.073680
v 0.082523 0.127943 0.082523
v 0.073680 0.127943 0.089780
v 0.064838 0.127943 0.097036
v 0.054749 0.127943 0.102429
v 0.044661 0.127943 0.107821
v 0.033714 0.127943 0.111142
v 0.022768 0.127943 0.114462
v 0.011384 0.127943 0.115584
v -0.000000 0.127943 0.116705
v -0.011384 0.127943 0.115584
v -0.022768 0.127943 0.114462
v -0.033714 0.127943 0.111142
v -0.044661 0.127943 0.107821
v -0.054749 0.127943 0.102429
v -0.064838 0.127943 0.097036
v -0.073680 0.127943 0.089780
v -0.082523 0.127943 0.082523
v -0.089780 0.127943 0.073680
v -0.097036 0.127943 0.064838
v -0.102429 0.127943 0.054749
v -0.107821 0.127943 0.044661
v -0.111142 0.127943 0.033714
v -0.114462 0.127943 0.022768
v -0.115584 0.127943 0.011384
v -0.116705 0.127943 -0.000000
v -0.115584 0.127943 -0.011384
v -0.114462 0.127943 -0.022768
v -0.111142 0.127943 -0.033714
v -0.107821 0.127943 -0.044661
v -0.102429 0.127943 -0.054749
v -0.097036 0.127943 -0.064838
v -0.089780 0.127943 -0.073680
v -0.082523 0.127943 -0.082523
v -0.073680 0.127943 -0.089780
v -0.064838 0.127943 -0.097036
v -0.054749 0.127943 -0.102429
v -0.044661 0.127943 -0.107821
v -0.033714 0.127943 -0.111142
v -0.022768 0.127943 -0.114462
v -0.011384 0.127943 -0.115584
vn 0.0980 0.0000 -0.9952
vn 0.2903 0.0000 -0.9569
vn 0.4714 0.0000 -0.8819
vn 0.6344 0.0000 -0.7730
vn 0.7730 0.0000 -0.6344
vn 0.8819 0.0000 -0.4714
vn 0.9569 0.0000 -0.2903
vn 0.9952 0.0000 -0.0980
vn 0.9952 0.0000 0.0980
vn 0.9569 0.0000 0.2903
vn 0.8819 0.0000 0.4714
vn 0.7730 0.0000 0.6344
vn 0.6344 0.0000 0.7730
vn 0.4714 0.0000 0.8819
vn 0.2903 0.0000 0.9569
vn 0.0980 0.0000 0.9952
vn -0.0980 0.0000 0.9952
vn -0.2903 0.0000 0.9569
vn -0.4714 0.0000 0.8819
vn -0.6344 0.0000 0.7730
vn -0.7730 0.0000 0.6344
vn -0.8819 0.0000 0.4714
vn -0.9569 0.0000 0.2903
vn -0.9952 0.0000 0.0980
vn -0.9952 0.0000 -0.0980
vn -0.9569 0.0000 -0.2903
vn -0.8819 0.0000 -0.4714
vn -0.7730 0.0000 -0.6344
vn -0.6344 0.0000 -0.7730
vn -0.4714 0.0000 -0.8819
vn 0.0000 1.0000 0.0000
vn -0.2903 0.0000 -0.9569
vn -0.0980 0.0000 -0.9952
vn 0.0000 -1.0000 0.0000
vn 0.0000 0.0000 1.0000
vn -0.0369 0.9265 0.3745
vn -0.1092 0.9265 0.3601
vn -0.1774 0.9265 0.3319
vn -0.2388 0.9265 0.2909
vn -0.2909 0.9265 0.2388
vn -0.3319 0.9265 0.1774
vn -0.3601 0.9265 0.1092
vn -0.3745 0.9265 0.0369
vn -0.3745 0.9265 -0.0369
vn -0.3601 0.9265 -0.1092
vn -0.3319 0.9265 -0.1774
vn -0.2909 0.9265 -0.2388
vn -0.2388 0.9265 -0.2909
vn -0.1774 0.9265 -0.3319
vn -0.1092 0.9265 -0.3601
vn -0.0369 0.9265 -0.3745
vn 0.0369 0.9265 -0.3745
vn 0.1092 0.9265 -0.3601
vn 0.1774 0.9265 -0.3319
vn 0.2388 0.9265 -0.2909
vn 0.2909 0.9265 -0.2388
vn 0.3319 0.9265 -0.1774
vn 0.3601 0.9265 -0.1092
vn 0.3745 0.9265 -0.0369
vn 0.3745 0.9265 0.0369
vn 0.3601 0.9265 0.1092
vn 0.3319 0.9265 0.1774
vn 0.2909 0.9265 0.2387
vn 0.2909 0.9265 0.2388
vn 0.2388 0.9265 0.2909
vn 0.1774 0.9265 0.3319
vn 0.1092 0.9265 0.3601
vn 0.0369 0.9265 0.3745
vn -0.0959 0.2063 0.9738
vn -0.2840 0.2063 0.9364
vn -0.4613 0.2063 0.8629
vn -0.6207 0.2063 0.7564
vn -0.7564 0.2063 0.6207
vn -0.8629 0.2063 0.4613
vn -0.9364 0.2063 0.2840
vn -0.9738 0.2063 0.0959
vn -0.9738 0.2063 -0.0959
vn -0.9364 0.2063 -0.2840
vn -0.8629 0.2063 -0.4613
vn -0.7564 0.2063 -0.6207
vn -0.6207 0.2063 -0.7564
vn -0.4613 0.2063 -0.8629
vn -0.2840 0.2063 -0.9364
vn -0.0959 0.2063 -0.9738
vn 0.0959 0.2063 -0.9738
vn 0.2840 0.2063 -0.9364
vn 0.4613 0.2063 -0.8629
vn 0.6207 0.2063 -0.7564
vn 0.7564 0.2063 -0.6207
vn 0.8629 0.2063 -0.4613
vn 0.9364 0.2063 -0.2840
vn 0.9738 0.2063 -0.0959
vn 0.9738 0.2063 0.0959
vn 0.9364 0.2063 0.2840
vn 0.8629 0.2063 0.4613
vn 0.7564 0.2063 0.6207
vn 0.6207 0.2063 0.7564
vn 0.4613 0.2063 0.8629
vn 0.2840 0.2063 0.9364
vn 0.0959 0.2063 0.9738

s off
f 1//1 2//1 3//1
f 1//1 3//1 4//1
f 5//2 6//2 7//2
f 5//2 7//2 8//2
f 9//3 10//3 11//3
f 9//3 11//3 12//3
f 13//4 14//4 15//4
f 13//4 15//4 16//4
f 17//5 18//5 19//5
f 17//5 19//5 20//5
f 21//6 22//6 23//6
f 21//6 23//6 24//6
f 25//7 26//7 27//7
f 25//7 27//7 28//7
f 29//8 30//8 31//8
f 29//8 31//8 32//8
f 33//9 34//9 35//9
f 33//9 35//9 36//9
f 37//10 38//10 39//10
f 37//10 39//10 40//10
f 41//11 42//11 43//11
f 41//11 43//11 44//11
f 45//12 46//12 47//12
f 45//12 47//12 48//12
f 49//13 50//13 51//13
f 49//13 51//13 52//13
f 53//14 54//14 55//14
f 53//14 55//14 56//14
f 57//15 58//15 59//15
f 57//15 59//15 60//15
f 61//16 62//16 63//16
f 61//16 63//16 64//16
f 65//17 66//17 67//17
f 65//17 67//17 68//17
f 69//18 70//18 71//18
f 69//18 71//18 72//18
f 73//19 74//19 75//19
f 73//19 75//19 76//19
f 77//20 78//20 79//20
f 77//20 79//20 80//20
f 81//21 82//21 83//21
f 81//21 83//21 84//21
f 85//22 86//22 87//22
f 85//22 87//22 88//22
f 89//23 90//23 91//23
f 89//23 91//23 92//23
f 93//24 94//24 95//24
f 93//24 95//24 96//24
f 97//25 98//25 99//25
f 97//25 99//25 100//25
f 101//26 102//26 103//26
f 101//26 103//26 104//26
f 105//27 106//27 107//27
f 105//27 107//27 108//27
f 109//28 110//28 111//28
f 109//28 111//28 112//28
f 113//29 114//29 115//29
f 113//29 115//29 116//29
f 117//30 118//30 119//30
f 117//30 119//30 120//30
f 121//31 122//31 123//31
f 123//31 124//31 125//31
f 125//31 126//31 127//31
f 127//31 128//31 129//31
f 129//31 130//31 131//31
f 131//31 132//31 133//31
f 133//31 134//31 135//31
f 135//31 136//31 137//31
f 137//31 138//31 139//31
f 139//31 140//31 141//31
f 141//31 142//31 143//31
f 143//31 144//31 145//31
f 145//31 146//31 147//31
f 147//31 148//31 149//31
f 149//31 150//31 151//31
f 151//31 152//31 153//31
f 153//31 154//31 155//31
f 155//31 156//31 157//31
f 157//31 158//31 159//31
f 159//31 160//31 161//31
f 161//31 162//31 163//31
f 163//31 164//31 165//31
f 165//31 166//31 167//31
f 167//31 168//31 169//31
f 169//31 170//31 171//31
f 171//31 172//31 173//31
f 173//31 174//31 175//31
f 175//31 176//31 177//31
f 177//31 178//31 179//31
f 179//31 180//31 181//31
f 181//31 182//31 183//31
f 183//31 184//31 121//31
f 121//31 123//31 125//31
f 125//31 127//31 129//31
f 129//31 131//31 133//31
f 133//31 135//31 137//31
f 137//31 139//31 141//31
f 141//31 143//31 145//31
f 145//31 147//31 149//31
f 149//31 151//31 153//31
f 153//31 155//31 157//31
f 157//31 159//31 161//31
f 161//31 163//31 165//31
f 165//31 167//31 169//31
f 169//31 171//31 173//31
f 173//31 175//31 177//31
f 177//31 179//31 181//31
f 181//31 183//31 121//31
f 121//31 125//31 129//31
f 129//31 133//31 137//31
f 137//31 141//31 145//31
f 145//31 149//31 153//31
f 153//31 157//31 161//31
f 161//31 165//31 169//31
f 169//31 173//31 177//31
f 177//31 181//31 121//31
f 121//31 129//31 137//31
f 137//31 145//31 153//31
f 153//31 161//31 169//31
f 169//31 177//31 121//31
f 121//31 137//31 153//31
f 153//31 169//31 121//31
f 185//32 186//32 187//32
f 185//32 187//32 188//32
f 189//33 190//33 191//33
f 189//33 191//33 192//33
f 188//34 189//34 192//34
f 1//34 4//34 5//34
f 188//34 192//34 1//34
f 120//34 185//34 188//34
f 116//34 117//34 120//34
f 109//34 112//34 113//34
f 113//34 116//34 120//34
f 120//34 188//34 1//34
f 1//34 5//34 8//34
f 8//34 9//34 12//34
f 12//34 13//34 16//34
f 16//31 17//31 20//31
f 20//35 21//35 24//35
f 24//35 25//35 28//35
f 29//34 32//34 33//34
f 24//34 28//34 29//34
f 16//34 20//34 24//34
f 8//34 12//34 16//34
f 120//34 1//34 8//34
f 109//34 113//34 120//34
f 105//34 108//34 109//34
f 101//34 104//34 105//34
f 97//34 100//34 101//34
f 93//34 96//34 97//34
f 89//34 92//34 93//34
f 85//34 88//34 89//34
f 81//34 84//34 85//34
f 77//34 80//34 81//34
f 73//34 76//34 77//34
f 69//34 72//34 73//34
f 65//34 68//34 69//34
f 61//34 64//34 65//34
f 57//34 60//34 61//34
f 53//34 56//34 57//34
f 49//34 52//34 53//34
f 45//34 48//34 49//34
f 41//34 44//34 45//34
f 37//34 40//34 41//34
f 33//34 36//34 37//34
f 24//34 29//34 33//34
f 8//34 16//34 24//34
f 109//34 120//34 8//34
f 101//34 105//34 109//34
f 93//34 97//34 101//34
f 85//34 89//34 93//34
f 77//34 81//34 85//34
f 69//34 73//34 77//34
f 61//34 65//34 69//34
f 53//34 57//34 61//34
f 45//34 49//34 53//34
f 37//34 41//34 45//34
f 24//34 33//34 37//34
f 109//34 8//34 24//34
f 93//34 101//34 109//34
f 77//34 85//34 93//34
f 61//34 69//34 77//34
f 45//34 53//34 61//34
f 24//34 37//34 45//34
f 93//34 109//34 24//34
f 61//34 77//34 93//34
f 24//34 45//34 61//34
f 24//34 61//34 93//34
f 188//33 187//33 190//33
f 188//33 190//33 189//33
f 120//32 119//32 186//32
f 120//32 186//32 185//32
f 116//30 115//30 118//30
f 116//30 118//30 117//30
f 112//29 111//29 114//29
f 112//29 114//29 113//29
f 108//28 107//28 110//28
f 108//28 110//28 109//28
f 104//27 103//27 106//27
f 104//27 106//27 105//27
f 100//26 99//26 102//26
f 100//26 102//26 101//26
f 96//25 95//25 98//25
f 96//25 98//25 97//25
f 92//24 91//24 94//24
f 92//24 94//24 93//24
f 88//23 87//23 90//23
f 88//23 90//23 89//23
f 84//22 83//22 86//22
f 84//22 86//22 85//22
f 80//21 79//21 82//21
f 80//21 82//21 81//21
f 76//20 75//20 78//20
f 76//20 78//20 77//20
f 72//19 71//19 74//19
f 72//19 74//19 73//19
f 68//18 67//18 70//18
f 68//18 70//18 69//18
f 64//17 63//17 66//17
f 64//17 66//17 65//17
f 60//16 59//16 62//16
f 60//16 62//16 61//16
f 56//15 55//15 58//15
f 56//15 58//15 57//15
f 52//14 51//14 54//14
f 52//14 54//14 53//14
f 48//13 47//13 50//13
f 48//13 50//13 49//13
f 44//12 43//12 46//12
f 44//12 46//12 45//12
f 40//11 39//11 42//11
f 40//11 42//11 41//11
f 36//10 35//10 38//10
f 36//10 38//10 37//10
f 32//9 31//9 34//9
f 32//9 34//9 33//9
f 28//8 27//8 30//8
f 28//8 30//8 29//8
f 24//7 23//7 26//7
f 24//7 26//7 25//7
f 20//6 19//6 22//6
f 20//6 22//6 21//6
f 16//5 15//5 18//5
f 16//5 18//5 17//5
f 12//4 11//4 14//4
f 12//4 14//4 13//4
f 8//3 7//3 10//3
f 8//3 10//3 9//3
f 4//2 3//2 6//2
f 4//2 6//2 5//2
f 192//1 191//1 2//1
f 192//1 2//1 1//1
f 193//36 194//36 2//36
f 193//36 2//36 191//36
f 195//37 196//37 6//37
f 195//37 6//37 3//37
f 197//38 198//38 10//38
f 197//38 10//38 7//38
f 199//39 200//39 14//39
f 199//39 14//39 11//39
f 201//40 202//40 18//40
f 201//40 18//40 15//40
f 203//41 204//41 22//41
f 203//41 22//41 19//41
f 205//42 206//42 26//42
f 205//42 26//42 23//42
f 207//43 208//43 30//43
f 207//43 30//43 27//43
f 209//44 210//44 34//44
f 209//44 34//44 31//44
f 211//45 212//45 38//45
f 211//45 38//45 35//45
f 213//46 214//46 42//46
f 213//46 42//46 39//46
f 215//47 216//47 46//47
f 215//47 46//47 43//47
f 217//48 218//48 50//48
f 217//48 50//48 47//48
f 219//49 220//49 54//49
f 219//49 54//49 51//49
f 221//50 222//50 58//50
f 221//50 58//50 55//50
f 223//51 224//51 62//51
f 223//51 62//51 59//51
f 225//52 226//52 66//52
f 225//52 66//52 63//52
f 227//53 228//53 70//53
f 227//53 70//53 67//53
f 229//54 230//54 74//54
f 229//54 74//54 71//54
f 231//55 232//55 78//55
f 231//55 78//55 75//55
f 233//56 234//56 82//56
f 233//56 82//56 79//56
f 235//57 236//57 86//57
f 235//57 86//57 83//57
f 237//58 238//58 90//58
f 237//58 90//58 87//58
f 239//59 240//59 94//59
f 239//59 94//59 91//59
f 241//60 242//60 98//60
f 241//60 98//60 95//60
f 243//61 244//61 102//61
f 243//61 102//61 99//61
f 245//62 246//62 106//62
f 245//62 106//62 103//62
f 247//63 248//63 110//63
f 247//64 110//64 107//64
f 249//65 250//65 114//65
f 249//65 114//65 111//65
f 251//66 252//66 118//66
f 251//66 118//66 115//66
f 253//67 254//67 186//67
f 253//67 186//67 119//67
f 255//68 256//68 190//68
f 255//68 190//68 187//68
f 194//36 195//36 3//36
f 194//36 3//36 2//36
f 196//37 197//37 7//37
f 196//37 7//37 6//37
f 198//38 199//38 11//38
f 198//38 11//38 10//38
f 200//39 201//39 15//39
f 200//39 15//39 14//39
f 202//40 203//40 19//40
f 202//40 19//40 18//40
f 204//41 205//41 23//41
f 204//41 23//41 22//41
f 206//42 207//42 27//42
f 206//42 27//42 26//42
f 208//43 209//43 31//43
f 208//43 31//43 30//43
f 210//44 211//44 35//44
f 210//44 35//44 34//44
f 212//45 213//45 39//45
f 212//45 39//45 38//45
f 214//46 215//46 43//46
f 214//46 43//46 42//46
f 216//47 217//47 47//47
f 216//47 47//47 46//47
f 218//48 219//48 51//48
f 218//48 51//48 50//48
f 220//49 221//49 55//49
f 220//49 55//49 54//49
f 222//50 223//50 59//50
f 222//50 59//50 58//50
f 224//51 225//51 63//51
f 224//51 63//51 62//51
f 226//52 227//52 67//52
f 226//52 67//52 66//52
f 228//53 229//53 71//53
f 228//53 71//53 70//53
f 230//54 231//54 75//54
f 230//54 75//54 74//54
f 232//55 233//55 79//55
f 232//55 79//55 78//55
f 234//56 235//56 83//56
f 234//56 83//56 82//56
f 236//57 237//57 87//57
f 236//57 87//57 86//57
f 238//58 239//58 91//58
f 238//58 91//58 90//58
f 240//59 241//59 95//59
f 240//59 95//59 94//59
f 242//60 243//60 99//60
f 242//60 99//60 98//60
f 244//61 245//61 103//61
f 244//61 103//61 102//61
f 246//62 247//62 107//62
f 246//62 107//62 106//62
f 248//64 249//64 111//64
f 248//64 111//64 110//64
f 250//65 251//65 115//65
f 250//65 115//65 114//65
f 252//66 253//66 119//66
f 252//66 119//66 118//66
f 254//67 255//67 187//67
f 254//67 187//67 186//67
f 256//68 193//68 191//68
f 256//68 191//68 190//68
f 124//69 123//69 194//69
f 124//69 194//69 193//69
f 122//70 121//70 196//70
f 122//70 196//70 195//70
f 184//71 183//71 198//71
f 184//71 198//71 197//71
f 182//72 181//72 200//72
f 182//72 200//72 199//72
f 180//73 179//73 202//73
f 180//73 202//73 201//73
f 178//74 177//74 204//74
f 178//74 204//74 203//74
f 176//75 175//75 206//75
f 176//75 206//75 205//75
f 174//76 173//76 208//76
f 174//76 208//76 207//76
f 172//77 171//77 210//77
f 172//77 210//77 209//77
f 170//78 169//78 212//78
f 170//78 212//78 211//78
f 168//79 167//79 214//79
f 168//79 214//79 213//79
f 166//80 165//80 216//80
f 166//80 216//80 215//80
f 164//81 163//81 218//81
f 164//81 218//81 217//81
f 162//82 161//82 220//82
f 162//82 220//82 219//82
f 160//83 159//83 222//83
f 160//83 222//83 221//83
f 158//84 157//84 224//84
f 158//84 224//84 223//84
f 156//85 155//85 226//85
f 156//85 226//85 225//85
f 154//86 153//86 228//86
f 154//86 228//86 227//86
f 152//87 151//87 230//87
f 152//87 230//87 229//87
f 150//88 149//88 232//88
f 150//88 232//88 231//88
f 148//89 147//89 234//89
f 148//89 234//89 233//89
f 146//90 145//90 236//90
f 146//90 236//90 235//90
f 144//91 143//91 238//91
f 144//91 238//91 237//91
f 142//92 141//92 240//92
f 142//92 240//92 239//92
f 140//93 139//93 242//93
f 140//93 242//93 241//93
f 138//94 137//94 244//94
f 138//94 244//94 243//94
f 136//95 135//95 246//95
f 136//95 246//95 245//95
f 134//96 133//96 248//96
f 134//96 248//96 247//96
f 132//97 131//97 250//97
f 132//97 250//97 249//97
f 130//98 129//98 252//98
f 130//98 252//98 251//98
f 128//99 127//99 254//99
f 128//99 254//99 253//99
f 126//100 125//100 256//100
f 126//100 256//100 255//100
f 123//69 122//69 195//69
f 123//69 195//69 194//69
f 121//70 184//70 197//70
f 121//70 197//70 196//70
f 183//71 182//71 199//71
f 183//71 199//71 198//71
f 181//72 180//72 201//72
f 181//72 201//72 200//72
f 179//73 178//73 203//73
f 179//73 203//73 202//73
f 177//74 176//74 205//74
f 177//74 205//74 204//74
f 175//75 174//75 207//75
f 175//75 207//75 206//75
f 173//76 172//76 209//76
f 173//76 209//76 208//76
f 171//77 170//77 211//77
f 171//77 211//77 210//77
f 169//78 168//78 213//78
f 169//78 213//78 212//78
f 167//79 166//79 215//79
f 167//79 215//79 214//79
f 165//80 164//80 217//80
f 165//80 217//80 216//80
f 163//81 162//81 219//81
f 163//81 219//81 218//81
f 161//82 160//82 221//82
f 161//82 221//82 220//82
f 159//83 158//83 223//83
f 159//83 223//83 222//83
f 157//84 156//84 225//84
f 157//84 225//84 224//84
f 155//85 154//85 227//85
f 155//85 227//85 226//85
f 153//86 152//86 229//86
f 153//86 229//86 228//86
f 151//87 150//87 231//87
f 151//87 231//87 230//87
f 149//88 148//88 233//88
f 149//88 233//88 232//88
f 147//89 146//89 235//89
f 147//89 235//89 234//89
f 145//90 144//90 237//90
f 145//90 237//90 236//90
f 143//91 142//91 239//91
f 143//91 239//91 238//91
f 141//92 140//92 241//92
f 141//92 241//92 240//92
f 139//93 138//93 243//93
f 139//93 243//93 242//93
f 137//94 136//94 245//94
f 137//94 245//94 244//94
f 135//95 134//95 247//95
f 135//95 247//95 246//95
f 133//96 132//96 249//96
f 133//96 249//96 248//96
f 131//97 130//97 251//97
f 131//97 251//97 250//97
f 129//98 128//98 253//98
f 129//98 253//98 252//98
f 127//99 126//99 255//99
f 127//99 255//99 254//99
f 125//100 124//100 193//100
f 125//100 193//100 256//100
