# File produced by Open Asset Import Library (http://www.assimp.sf.net)
# (assimp v3.0.1262)

mtllib 10.stl.obj.mtl

# 138 vertex positions
v  0.06886 0.077474 0.101131
v  0.06886 0.06886 0.06672
v  0.073164 0.06886 0.06672
v  0 0.137714 0.053814
v  0.025825 0.137714 0.053814
v  0.06886 0.06886 0.053814
v  0.06886 0.06886 0.053814
v  0.025825 0.137714 0.053814
v  0.073164 0.116194 0.053814
v  0 0.137714 0.053814
v  0.06886 0.06886 0.053814
v  0 0.098994 0.053814
v  0 0.111887 0.131255
v  0 0.137714 0.053814
v  0 0.098994 0.053814
v  0.025825 0.137714 0.053814
v  0 0.137714 0.053814
v  0 0.137714 0.139864
v  0 0.137714 0.053814
v  0 0.111887 0.131255
v  0 0.137714 0.139864
v  0 0.098994 0.053814
v  0.06886 0.06886 0.053814
v  0.06886 0.06886 0.06672
v  0.025825 0.137714 0.053814
v  0 0.137714 0.139864
v  0.025825 0.137714 0.139864
v  0 0.137714 0.139864
v  0.064549 0.124801 0.139864
v  0.025825 0.137714 0.139864
v  0.073164 0.086087 0.131255
v  0.073164 0.116194 0.053814
v  0.073164 0.116194 0.139864
v  0.073164 0.116194 0.053814
v  0.064549 0.124801 0.139864
v  0.073164 0.116194 0.139864
v  0.064549 0.124801 0.139864
v  0 0.137714 0.139864
v  0.073164 0.116194 0.139864
v  0.073164 0.116194 0.053814
v  0.025825 0.137714 0.053814
v  0.055947 0.129107 0.053814
v  0.073164 0.116194 0.053814
v  0.073164 0.086087 0.131255
v  0.073164 0.06886 0.053814
v  0.06886 0.06886 0.053814
v  0.073164 0.116194 0.053814
v  0.073164 0.06886 0.053814
v  0.06886 0.06886 0.06672
v  0.06886 0.06886 0.053814
v  0.073164 0.06886 0.053814
v  0 0.111887 0.131255
v  0 0.098994 0.053814
v  0 0.098994 0.06672
v  0.06886 0.06886 0.06672
v  0 0.111887 0.131255
v  0 0.098994 0.06672
v  0 0.098994 0.053814
v  0.06886 0.06886 0.06672
v  0 0.098994 0.06672
v  0.025825 0.137714 0.053814
v  0.025825 0.137714 0.139864
v  0.043035 0.133407 0.139864
v  0.025825 0.137714 0.139864
v  0.064549 0.124801 0.139864
v  0.043035 0.133407 0.139864
v  0.073164 0.086087 0.131255
v  0.073164 0.116194 0.139864
v  0.064549 0.111887 0.139864
v  0.073164 0.116194 0.139864
v  0 0.137714 0.139864
v  0.064549 0.111887 0.139864
v  0.06886 0.086087 0.131255
v  0.073164 0.086087 0.131255
v  0.064549 0.111887 0.139864
v  0.06886 0.086087 0.131255
v  0.064549 0.111887 0.139864
v  0 0.120494 0.13556
v  0 0.137714 0.139864
v  0 0.111887 0.131255
v  0 0.120494 0.13556
v  0 0.111887 0.131255
v  0.06886 0.086087 0.131255
v  0 0.120494 0.13556
v  0.064549 0.124801 0.139864
v  0.073164 0.116194 0.053814
v  0.064549 0.124801 0.053814
v  0.055947 0.129107 0.053814
v  0.064549 0.124801 0.139864
v  0.064549 0.124801 0.053814
v  0.073164 0.116194 0.053814
v  0.055947 0.129107 0.053814
v  0.064549 0.124801 0.053814
v  0 0.111887 0.131255
v  0.06886 0.06886 0.06672
v  0.06886 0.077474 0.101131
v  0.06886 0.086087 0.131255
v  0 0.111887 0.131255
v  0.06886 0.077474 0.101131
v  0.073164 0.086087 0.131255
v  0.06886 0.086087 0.131255
v  0.06886 0.077474 0.101131
v  0.064549 0.124801 0.139864
v  0.055947 0.129107 0.053814
v  0.055947 0.129107 0.139864
v  0.043035 0.133407 0.139864
v  0.064549 0.124801 0.139864
v  0.055947 0.129107 0.139864
v  0.055947 0.129107 0.053814
v  0.043035 0.133407 0.139864
v  0.055947 0.129107 0.139864
v  0.055947 0.129107 0.053814
v  0.025825 0.137714 0.053814
v  0.043035 0.133407 0.053814
v  0.025825 0.137714 0.053814
v  0.043035 0.133407 0.139864
v  0.043035 0.133407 0.053814
v  0.043035 0.133407 0.139864
v  0.055947 0.129107 0.053814
v  0.043035 0.133407 0.053814
v  0.064549 0.111887 0.139864
v  0 0.137714 0.139864
v  0 0.133407 0.139864
v  0 0.120494 0.13556
v  0.064549 0.111887 0.139864
v  0 0.133407 0.139864
v  0 0.137714 0.139864
v  0 0.120494 0.13556
v  0 0.133407 0.139864
v  0.073164 0.06886 0.053814
v  0.073164 0.086087 0.131255
v  0.073164 0.06886 0.06672
v  0.06886 0.06886 0.06672
v  0.073164 0.06886 0.053814
v  0.073164 0.06886 0.06672
v  0.073164 0.086087 0.131255
v  0.06886 0.077474 0.101131
v  0.073164 0.06886 0.06672

# 0 UV coordinates

# 138 vertex normals
vn 0 -0.970068 0.242834
vn 0 -0.970068 0.242834
vn 0 -0.970068 0.242834
vn 0 1.62313e-07 -1
vn 0 1.62313e-07 -1
vn 0 1.62313e-07 -1
vn 0 1.62313e-07 -1
vn 0 1.62313e-07 -1
vn 9.97832e-08 1.58028e-07 -1
vn 0 1.62313e-07 -1
vn 0 1.62313e-07 -1
vn -8.73248e-08 1.92422e-07 -1
vn -1 0 0
vn -1 0 0
vn -1 0 0
vn 0 1 4.19092e-07
vn 0 1 4.19092e-07
vn 0 1 4.19092e-07
vn -1 0 0
vn -1 0 0
vn -1 0 0
vn -0.400905 -0.91612 0
vn -0.400905 -0.91612 0
vn -0.400905 -0.91612 0
vn 0 1 4.19092e-07
vn 0 1 4.19092e-07
vn 0 1 0
vn 0 -1.15397e-06 1
vn 0 -1.15397e-06 1
vn 0 -1.15397e-06 1
vn 1 0 0
vn 1 0 0
vn 1 0 0
vn 0.706778 0.707435 2.22188e-07
vn 0.706778 0.707435 2.22188e-07
vn 0.706778 0.707435 2.22188e-07
vn 0 -1.15397e-06 1
vn 0 -1.15397e-06 1
vn 1.04802e-06 2.88917e-07 1
vn 9.97832e-08 1.58028e-07 -1
vn 0 1.62313e-07 -1
vn 2.41748e-07 4.66043e-07 -1
vn 1 0 0
vn 1 0 0
vn 1 5.08143e-07 0
vn 0 1.62313e-07 -1
vn 9.97832e-08 1.58028e-07 -1
vn 0 1.57404e-07 -1
vn 0 -1 0
vn 0 -1 0
vn 0 -1 0
vn -1 0 0
vn -1 0 0
vn -1 0 0
vn -0.394355 -0.90115 0.180034
vn -0.394355 -0.90115 0.180034
vn -0.394355 -0.90115 0.180034
vn -0.400905 -0.91612 0
vn -0.400905 -0.91612 0
vn -0.400906 -0.916119 0
vn 0.242774 0.970083 3.05033e-07
vn 0.242774 0.970083 3.05033e-07
vn 0.242774 0.970083 3.05033e-07
vn 8.398e-06 5.78158e-06 1
vn 8.398e-06 5.78158e-06 1
vn 8.398e-06 5.78158e-06 1
vn 0.136167 -0.272367 0.95251
vn 0.136167 -0.272367 0.95251
vn 0.136167 -0.272367 0.95251
vn 1.04802e-06 2.88917e-07 1
vn 0 -1.15397e-06 1
vn 0 -2.56484e-07 1
vn 0 -0.316526 0.948584
vn 0 -0.316526 0.948584
vn 0 -0.316526 0.948584
vn -0.10662 -0.330706 0.937692
vn -0.10662 -0.330706 0.937692
vn -0.10662 -0.330706 0.937692
vn -1 0 0
vn -1 0 0
vn -1 0 0
vn -0.165301 -0.441185 0.882061
vn -0.165301 -0.441185 0.882061
vn -0.165301 -0.441185 0.882061
vn 0.706778 0.707435 2.22188e-07
vn 0.706778 0.707435 2.22188e-07
vn 0.706778 0.707436 0
vn 0.447629 0.894219 0
vn 0.447629 0.894219 0
vn 0.447629 0.894219 0
vn 9.97832e-08 1.58028e-07 -1
vn 2.41748e-07 4.66043e-07 -1
vn -1.57569e-06 -8.6877e-07 -1
vn -0.354043 -0.907236 0.227105
vn -0.354043 -0.907236 0.227105
vn -0.354043 -0.907236 0.227105
vn -0.338917 -0.904568 0.258633
vn -0.338917 -0.904568 0.258633
vn -0.338917 -0.904568 0.258633
vn 0 -0.961472 0.274902
vn 0 -0.961472 0.274902
vn 0 -0.961472 0.274902
vn 0.447629 0.894219 0
vn 0.447629 0.894219 0
vn 0.447628 0.89422 2.81277e-07
vn 0 0 1
vn 0 -1.15397e-06 1
vn 0 0 1
vn 0.315963 0.948771 0
vn 0.315963 0.948771 0
vn 0.315963 0.948771 0
vn 2.41748e-07 4.66043e-07 -1
vn 0 1.62313e-07 -1
vn 0 0 -1
vn 0.242774 0.970083 3.05033e-07
vn 0.242774 0.970083 3.05033e-07
vn 0.242774 0.970083 0
vn 0.315963 0.948771 0
vn 0.315963 0.948771 0
vn 0.315963 0.948771 3.97638e-07
vn 0 -2.56484e-07 1
vn 0 -1.15397e-06 1
vn -1.25622e-06 -3.45975e-06 1
vn -0.104839 -0.314463 0.943463
vn -0.104839 -0.314463 0.943463
vn -0.104839 -0.314463 0.943463
vn -1 0 0
vn -1 0 0
vn -1 0 0
vn 1 5.08143e-07 0
vn 1 0 0
vn 1 -4.18889e-06 0
vn 0 -1 0
vn 0 -1 0
vn 0 -1 0
vn 0.12729 -0.95831 0.255812
vn 0.12729 -0.95831 0.255812
vn 0.12729 -0.95831 0.255812

# Mesh '<STL_BINARY>' with 46 faces
g <STL_BINARY>
usemtl DefaultMaterial
f  1//1 2//2 3//3
f  4//4 5//5 6//6
f  7//7 8//8 9//9
f  10//10 11//11 12//12
f  13//13 14//14 15//15
f  16//16 17//17 18//18
f  19//19 20//20 21//21
f  22//22 23//23 24//24
f  25//25 26//26 27//27
f  28//28 29//29 30//30
f  31//31 32//32 33//33
f  34//34 35//35 36//36
f  37//37 38//38 39//39
f  40//40 41//41 42//42
f  43//43 44//44 45//45
f  46//46 47//47 48//48
f  49//49 50//50 51//51
f  52//52 53//53 54//54
f  55//55 56//56 57//57
f  58//58 59//59 60//60
f  61//61 62//62 63//63
f  64//64 65//65 66//66
f  67//67 68//68 69//69
f  70//70 71//71 72//72
f  73//73 74//74 75//75
f  76//76 77//77 78//78
f  79//79 80//80 81//81
f  82//82 83//83 84//84
f  85//85 86//86 87//87
f  88//88 89//89 90//90
f  91//91 92//92 93//93
f  94//94 95//95 96//96
f  97//97 98//98 99//99
f  100//100 101//101 102//102
f  103//103 104//104 105//105
f  106//106 107//107 108//108
f  109//109 110//110 111//111
f  112//112 113//113 114//114
f  115//115 116//116 117//117
f  118//118 119//119 120//120
f  121//121 122//122 123//123
f  124//124 125//125 126//126
f  127//127 128//128 129//129
f  130//130 131//131 132//132
f  133//133 134//134 135//135
f  136//136 137//137 138//138

