# File produced by Open Asset Import Library (http://www.assimp.sf.net)
# (assimp v3.0.1262)

mtllib 12.stl.obj.mtl

# 156 vertex positions
v  0.055963 -0.129102 0.139864
v  0.025832 -0.137721 0.139864
v  0.043041 -0.133405 0.139864
v  0.116202 -0.077474 0.139864
v  0.116202 -0.073164 0.139864
v  0 -0.133405 0.139864
v  0.116202 -0.073164 0.139864
v  0.116202 -0.077474 0.139864
v  0.116202 -0.073164 0.053814
v  0.043041 -0.133405 0.053814
v  0 -0.098997 0.053814
v  0.116202 -0.073164 0.053814
v  0.116202 -0.077474 0.139864
v  0 -0.133405 0.139864
v  0.06455 -0.124805 0.139864
v  0.116202 -0.073164 0.139864
v  0.116202 -0.073164 0.053814
v  0.081771 -0.073164 0.12695
v  0 -0.098997 0.053814
v  0.043041 -0.133405 0.053814
v  0 -0.137721 0.053814
v  0 -0.133405 0.139864
v  0 -0.098997 0.053814
v  0 -0.137721 0.053814
v  0 -0.098997 0.053814
v  0 -0.133405 0.139864
v  0 -0.111888 0.131255
v  0.043041 -0.133405 0.053814
v  0.116202 -0.073164 0.053814
v  0.09037 -0.107591 0.053814
v  0.116202 -0.073164 0.053814
v  0 -0.098997 0.053814
v  0.060239 -0.073164 0.053814
v  0.081771 -0.073164 0.12695
v  0.116202 -0.073164 0.053814
v  0.060239 -0.073164 0.053814
v  0.06455 -0.124805 0.139864
v  0 -0.133405 0.139864
v  0.025832 -0.137721 0.139864
v  0.116202 -0.077474 0.139864
v  0.06455 -0.124805 0.139864
v  0.09037 -0.107591 0.139864
v  0.06455 -0.124805 0.139864
v  0.09037 -0.107591 0.053814
v  0.09037 -0.107591 0.139864
v  0 -0.098997 0.053814
v  0 -0.111888 0.131255
v  0 -0.098997 0.06672
v  0 -0.111888 0.131255
v  0.081771 -0.073164 0.12695
v  0 -0.098997 0.06672
v  0.060239 -0.073164 0.053814
v  0 -0.098997 0.053814
v  0 -0.098997 0.06672
v  0.09037 -0.107591 0.053814
v  0.116202 -0.073164 0.053814
v  0.107592 -0.09039 0.053814
v  0.09037 -0.107591 0.139864
v  0.09037 -0.107591 0.053814
v  0.107592 -0.09039 0.053814
v  0.043041 -0.133405 0.053814
v  0.09037 -0.107591 0.053814
v  0.06455 -0.124805 0.053814
v  0.09037 -0.107591 0.053814
v  0.06455 -0.124805 0.139864
v  0.06455 -0.124805 0.053814
v  0 -0.137721 0.053814
v  0.043041 -0.133405 0.053814
v  0.025832 -0.137721 0.053814
v  0.043041 -0.133405 0.053814
v  0.025832 -0.137721 0.139864
v  0.025832 -0.137721 0.053814
v  0.025832 -0.137721 0.139864
v  0 -0.137721 0.053814
v  0.025832 -0.137721 0.053814
v  0 -0.133405 0.139864
v  0 -0.137721 0.053814
v  0 -0.137721 0.139864
v  0.025832 -0.137721 0.139864
v  0 -0.133405 0.139864
v  0 -0.137721 0.139864
v  0 -0.137721 0.053814
v  0.025832 -0.137721 0.139864
v  0 -0.137721 0.139864
v  0 -0.133405 0.139864
v  0.116202 -0.073164 0.139864
v  0.107592 -0.073164 0.139864
v  0.116202 -0.073164 0.139864
v  0.081771 -0.073164 0.12695
v  0.107592 -0.073164 0.139864
v  0.116202 -0.077474 0.139864
v  0.09037 -0.107591 0.139864
v  0.107592 -0.09039 0.139864
v  0.107592 -0.09039 0.053814
v  0.116202 -0.077474 0.139864
v  0.107592 -0.09039 0.139864
v  0.09037 -0.107591 0.139864
v  0.107592 -0.09039 0.053814
v  0.107592 -0.09039 0.139864
v  0.06455 -0.124805 0.139864
v  0.025832 -0.137721 0.139864
v  0.055963 -0.129102 0.139864
v  0.06455 -0.124805 0.053814
v  0.06455 -0.124805 0.139864
v  0.055963 -0.129102 0.139864
v  0.116202 -0.073164 0.053814
v  0.116202 -0.077474 0.139864
v  0.116202 -0.077474 0.053814
v  0.116202 -0.077474 0.139864
v  0.107592 -0.09039 0.053814
v  0.116202 -0.077474 0.053814
v  0.107592 -0.09039 0.053814
v  0.116202 -0.073164 0.053814
v  0.116202 -0.077474 0.053814
v  0.081771 -0.073164 0.12695
v  0.060239 -0.073164 0.053814
v  0.060239 -0.073164 0.05811
v  0 -0.098997 0.06672
v  0.081771 -0.073164 0.12695
v  0.060239 -0.073164 0.05811
v  0.060239 -0.073164 0.053814
v  0 -0.098997 0.06672
v  0.060239 -0.073164 0.05811
v  0.081771 -0.073164 0.12695
v  0 -0.111888 0.131255
v  0.09467 -0.073164 0.13556
v  0.107592 -0.073164 0.139864
v  0.081771 -0.073164 0.12695
v  0.09467 -0.073164 0.13556
v  0 -0.111888 0.131255
v  0.107592 -0.073164 0.139864
v  0.09467 -0.073164 0.13556
v  0 -0.111888 0.131255
v  0 -0.133405 0.139864
v  0 -0.120495 0.13556
v  0 -0.133405 0.139864
v  0.107592 -0.073164 0.139864
v  0 -0.120495 0.13556
v  0.107592 -0.073164 0.139864
v  0 -0.111888 0.131255
v  0 -0.120495 0.13556
v  0.043041 -0.133405 0.053814
v  0.06455 -0.124805 0.053814
v  0.055963 -0.129102 0.053814
v  0.055963 -0.129102 0.139864
v  0.043041 -0.133405 0.053814
v  0.055963 -0.129102 0.053814
v  0.06455 -0.124805 0.053814
v  0.055963 -0.129102 0.139864
v  0.055963 -0.129102 0.053814
v  0.025832 -0.137721 0.139864
v  0.043041 -0.133405 0.053814
v  0.043041 -0.133405 0.139864
v  0.043041 -0.133405 0.053814
v  0.055963 -0.129102 0.139864
v  0.043041 -0.133405 0.139864

# 0 UV coordinates

# 156 vertex normals
vn -6.36845e-06 1.05335e-05 1
vn -6.36845e-06 1.05335e-05 1
vn -6.36845e-06 1.05335e-05 1
vn 0 0 1
vn 0 0 1
vn 0 0 1
vn 1 0 0
vn 1 0 0
vn 1 0 0
vn 0 2.00799e-07 -1
vn 0 2.00799e-07 -1
vn 0 2.00799e-07 -1
vn 0 0 1
vn 0 0 1
vn -1.78345e-07 0 1
vn -6.49502e-08 1 1.5717e-07
vn -6.49502e-08 1 1.5717e-07
vn -6.49502e-08 1 1.5717e-07
vn 0 2.00799e-07 -1
vn 0 2.00799e-07 -1
vn -1.74617e-08 1.92402e-07 -1
vn -1 0 0
vn -1 0 0
vn -1 0 0
vn -1 0 0
vn -1 0 0
vn -1 0 0
vn 0 2.00799e-07 -1
vn 0 2.00799e-07 -1
vn -2.41885e-07 2.66367e-07 -1
vn 0 2.00799e-07 -1
vn 0 2.00799e-07 -1
vn 0 1.44207e-07 -1
vn -6.49502e-08 1 1.5717e-07
vn -6.49502e-08 1 1.5717e-07
vn 0 1 2.27545e-07
vn -1.78345e-07 0 1
vn 0 0 1
vn 6.97441e-07 -1.92085e-06 1
vn 0 0 1
vn -1.78345e-07 0 1
vn -1.39859e-06 0 1
vn 0.554715 -0.83204 -1.74384e-07
vn 0.554715 -0.83204 -1.74384e-07
vn 0.554715 -0.83204 -1.74384e-07
vn -1 0 0
vn -1 0 0
vn -1 0 0
vn -0.413451 0.892887 0.178356
vn -0.413451 0.892887 0.178356
vn -0.413451 0.892887 0.178356
vn -0.394129 0.919055 0
vn -0.394129 0.919055 0
vn -0.394129 0.919055 0
vn -2.41885e-07 2.66367e-07 -1
vn 0 2.00799e-07 -1
vn -7.83595e-07 2.15946e-07 -1
vn 0.706675 -0.707538 -1.11162e-07
vn 0.706675 -0.707538 -1.11162e-07
vn 0.706675 -0.707538 -1.11162e-07
vn 0 2.00799e-07 -1
vn -2.41885e-07 2.66367e-07 -1
vn 1.57102e-06 -6.49019e-07 -1
vn 0.554715 -0.83204 -1.74384e-07
vn 0.554715 -0.83204 -1.74384e-07
vn 0.554715 -0.83204 -1.74384e-07
vn -1.74617e-08 1.92402e-07 -1
vn 0 2.00799e-07 -1
vn 0 0 -1
vn 0.243265 -0.96996 0
vn 0.243265 -0.96996 0
vn 0.243265 -0.96996 0
vn 0 -1 -4.18978e-07
vn 0 -1 -4.18978e-07
vn 0 -1 -4.18978e-07
vn -1 0 0
vn -1 0 0
vn -1 0 0
vn 6.97441e-07 -1.92085e-06 1
vn 0 0 1
vn 0 -3.45254e-06 1
vn 0 -1 -4.18978e-07
vn 0 -1 -4.18978e-07
vn 0 -1 0
vn 0 0 1
vn 0 0 1
vn 0 0 1
vn -6.49502e-08 1 1.5717e-07
vn -6.49502e-08 1 1.5717e-07
vn 0 1 0
vn 0 0 1
vn -1.39859e-06 0 1
vn 0 0 1
vn 0.83207 -0.55467 -8.71548e-08
vn 0.83207 -0.55467 -8.71548e-08
vn 0.83207 -0.55467 -8.71548e-08
vn 0.706675 -0.707538 -1.11162e-07
vn 0.706675 -0.707538 -1.11162e-07
vn 0.706675 -0.707538 -1.11162e-07
vn -1.78345e-07 0 1
vn -6.36845e-06 1.05335e-05 1
vn -6.36845e-06 1.05335e-05 1
vn 0.447506 -0.894281 0
vn 0.447506 -0.894281 0
vn 0.447506 -0.894281 0
vn 1 0 0
vn 1 0 0
vn 1 0 0
vn 0.83207 -0.55467 -8.71548e-08
vn 0.83207 -0.55467 -8.71548e-08
vn 0.832071 -0.554669 -8.71549e-08
vn -7.83595e-07 2.15946e-07 -1
vn 0 2.00799e-07 -1
vn 2.35284e-06 0 -1
vn -6.49502e-08 1 1.5717e-07
vn 0 1 2.27545e-07
vn 6.92057e-07 1 0
vn -0.377091 0.918635 0.117948
vn -0.377091 0.918635 0.117948
vn -0.377091 0.918635 0.117948
vn -0.394129 0.919055 0
vn -0.394129 0.919055 0
vn -0.39413 0.919055 0
vn -0.344326 0.784437 0.515847
vn -0.344326 0.784437 0.515847
vn -0.344326 0.784437 0.515847
vn 0 1 0
vn -6.49502e-08 1 1.5717e-07
vn 0 1 -2.08849e-06
vn -0.262883 0.554938 0.789263
vn -0.262883 0.554938 0.789263
vn -0.262883 0.554938 0.789263
vn -1 0 0
vn -1 0 0
vn -1 0 0
vn -0.174367 0.311426 0.934136
vn -0.174367 0.311426 0.934136
vn -0.174367 0.311426 0.934136
vn -0.226522 0.435711 0.871117
vn -0.226522 0.435711 0.871117
vn -0.226522 0.435711 0.871117
vn 0 2.00799e-07 -1
vn 1.57102e-06 -6.49019e-07 -1
vn -1.56675e-06 2.59143e-06 -1
vn 0.315941 -0.948779 -3.97333e-07
vn 0.315941 -0.948779 -3.97333e-07
vn 0.315941 -0.948779 -3.97333e-07
vn 0.447506 -0.894281 0
vn 0.447506 -0.894281 0
vn 0.447506 -0.894281 -2.81788e-07
vn 0.243265 -0.96996 0
vn 0.243265 -0.96996 0
vn 0.243265 -0.96996 -3.05012e-07
vn 0.315941 -0.948779 -3.97333e-07
vn 0.315941 -0.948779 -3.97333e-07
vn 0.315941 -0.948779 -3.97333e-07

# Mesh '<STL_BINARY>' with 52 faces
g <STL_BINARY>
usemtl DefaultMaterial
f  1//1 2//2 3//3
f  4//4 5//5 6//6
f  7//7 8//8 9//9
f  10//10 11//11 12//12
f  13//13 14//14 15//15
f  16//16 17//17 18//18
f  19//19 20//20 21//21
f  22//22 23//23 24//24
f  25//25 26//26 27//27
f  28//28 29//29 30//30
f  31//31 32//32 33//33
f  34//34 35//35 36//36
f  37//37 38//38 39//39
f  40//40 41//41 42//42
f  43//43 44//44 45//45
f  46//46 47//47 48//48
f  49//49 50//50 51//51
f  52//52 53//53 54//54
f  55//55 56//56 57//57
f  58//58 59//59 60//60
f  61//61 62//62 63//63
f  64//64 65//65 66//66
f  67//67 68//68 69//69
f  70//70 71//71 72//72
f  73//73 74//74 75//75
f  76//76 77//77 78//78
f  79//79 80//80 81//81
f  82//82 83//83 84//84
f  85//85 86//86 87//87
f  88//88 89//89 90//90
f  91//91 92//92 93//93
f  94//94 95//95 96//96
f  97//97 98//98 99//99
f  100//100 101//101 102//102
f  103//103 104//104 105//105
f  106//106 107//107 108//108
f  109//109 110//110 111//111
f  112//112 113//113 114//114
f  115//115 116//116 117//117
f  118//118 119//119 120//120
f  121//121 122//122 123//123
f  124//124 125//125 126//126
f  127//127 128//128 129//129
f  130//130 131//131 132//132
f  133//133 134//134 135//135
f  136//136 137//137 138//138
f  139//139 140//140 141//141
f  142//142 143//143 144//144
f  145//145 146//146 147//147
f  148//148 149//149 150//150
f  151//151 152//152 153//153
f  154//154 155//155 156//156

