# File produced by Open Asset Import Library (http://www.assimp.sf.net)
# (assimp v3.0.1262)

# 156 vertex positions
v  -0.124806 -0.06456 0.053797
v  -0.133407 -0.043058 0.053797
v  -0.129093 -0.055959 0.053797
v  -0.137721 -0.025829 -0.002146
v  -0.137721 3.49628e-10 -0.002146
v  0 3.49628e-10 -0.002146
v  -0.137721 3.49628e-10 -0.002146
v  -0.137721 -0.025829 -0.002146
v  -0.137721 -8.76464e-09 0.053797
v  0 3.49628e-10 -0.002146
v  -0.137721 3.49628e-10 -0.002146
v  -0.137721 -8.76464e-09 0.053797
v  -0.137721 -0.025829 -0.002146
v  0 3.49628e-10 -0.002146
v  0 -0.137721 -0.00214602
v  0 -0.137721 -0.00214602
v  0 3.49628e-10 -0.002146
v  0 -8.06262e-09 0.049488
v  0 3.49628e-10 -0.002146
v  -0.137721 -8.76464e-09 0.053797
v  0 -8.06262e-09 0.049488
v  -0.137721 -8.76464e-09 0.053797
v  -0.06456 -0.124806 0.053797
v  0 -0.137721 0.053797
v  0 -0.137721 -0.00214602
v  0 -8.06262e-09 0.049488
v  0 -0.137721 0.053797
v  -0.137721 -0.025829 -0.002146
v  0 -0.137721 -0.00214602
v  -0.107578 -0.090376 -0.00214601
v  -0.06456 -0.124806 0.053797
v  -0.137721 -8.76464e-09 0.053797
v  -0.124806 -0.06456 0.053797
v  -0.107578 -0.090376 -0.00214601
v  0 -0.137721 -0.00214602
v  -0.055959 -0.129093 -0.00214602
v  -0.06456 -0.124806 0.053797
v  -0.124806 -0.06456 0.053797
v  -0.090376 -0.107578 0.053797
v  0 -0.137721 0.053797
v  -0.06456 -0.124806 0.053797
v  -0.025829 -0.137721 0.053797
v  0 -0.137721 -0.00214602
v  0 -0.137721 0.053797
v  -0.025829 -0.137721 0.053797
v  0 -8.06262e-09 0.049488
v  -0.137721 -8.76464e-09 0.053797
v  -0.098963 -8.76464e-09 0.053797
v  -0.137721 -8.76464e-09 0.053797
v  0 -0.137721 0.053797
v  -0.098963 -8.76464e-09 0.053797
v  -0.137721 -0.025829 -0.002146
v  -0.107578 -0.090376 -0.00214601
v  -0.129093 -0.055959 -0.00214601
v  -0.137721 -8.76464e-09 0.053797
v  -0.137721 -0.025829 -0.002146
v  -0.137721 -0.025829 0.053797
v  -0.124806 -0.06456 0.053797
v  -0.137721 -8.76464e-09 0.053797
v  -0.137721 -0.025829 0.053797
v  0 -0.137721 0.053797
v  0 -8.06262e-09 0.049488
v  0 -0.098963 0.053797
v  0 -8.06262e-09 0.049488
v  -0.098963 -8.76464e-09 0.053797
v  0 -0.098963 0.053797
v  -0.098963 -8.76464e-09 0.053797
v  0 -0.137721 0.053797
v  0 -0.098963 0.053797
v  -0.107578 -0.090376 -0.00214601
v  -0.055959 -0.129093 -0.00214602
v  -0.090376 -0.107578 -0.00214602
v  -0.090376 -0.107578 0.053797
v  -0.107578 -0.090376 -0.00214601
v  -0.090376 -0.107578 -0.00214602
v  -0.06456 -0.124806 0.053797
v  -0.090376 -0.107578 0.053797
v  -0.090376 -0.107578 -0.00214602
v  -0.055959 -0.129093 -0.00214602
v  0 -0.137721 -0.00214602
v  -0.025829 -0.137721 -0.00214602
v  0 -0.137721 -0.00214602
v  -0.025829 -0.137721 0.053797
v  -0.025829 -0.137721 -0.00214602
v  -0.124806 -0.06456 0.053797
v  -0.107578 -0.090376 -0.00214601
v  -0.107578 -0.090376 0.053797
v  -0.107578 -0.090376 -0.00214601
v  -0.090376 -0.107578 0.053797
v  -0.107578 -0.090376 0.053797
v  -0.090376 -0.107578 0.053797
v  -0.124806 -0.06456 0.053797
v  -0.107578 -0.090376 0.053797
v  -0.124806 -0.06456 0.053797
v  -0.137721 -0.025829 0.053797
v  -0.133407 -0.043058 0.053797
v  -0.137721 -0.025829 0.053797
v  -0.137721 -0.025829 -0.002146
v  -0.133407 -0.043058 0.053797
v  -0.025829 -0.137721 0.053797
v  -0.06456 -0.124806 0.053797
v  -0.043058 -0.133407 0.053797
v  -0.025829 -0.137721 -0.00214602
v  -0.025829 -0.137721 0.053797
v  -0.043058 -0.133407 0.053797
v  -0.107578 -0.090376 -0.00214601
v  -0.124806 -0.06456 0.053797
v  -0.124806 -0.06456 -0.00214601
v  -0.129093 -0.055959 -0.00214601
v  -0.107578 -0.090376 -0.00214601
v  -0.124806 -0.06456 -0.00214601
v  -0.124806 -0.06456 0.053797
v  -0.129093 -0.055959 -0.00214601
v  -0.124806 -0.06456 -0.00214601
v  -0.055959 -0.129093 -0.00214602
v  -0.06456 -0.124806 0.053797
v  -0.06456 -0.124806 -0.00214602
v  -0.06456 -0.124806 0.053797
v  -0.090376 -0.107578 -0.00214602
v  -0.06456 -0.124806 -0.00214602
v  -0.090376 -0.107578 -0.00214602
v  -0.055959 -0.129093 -0.00214602
v  -0.06456 -0.124806 -0.00214602
v  -0.055959 -0.129093 -0.00214602
v  -0.025829 -0.137721 -0.00214602
v  -0.043058 -0.133407 -0.00214602
v  -0.043058 -0.133407 0.053797
v  -0.055959 -0.129093 -0.00214602
v  -0.043058 -0.133407 -0.00214602
v  -0.025829 -0.137721 -0.00214602
v  -0.043058 -0.133407 0.053797
v  -0.043058 -0.133407 -0.00214602
v  -0.137721 -0.025829 -0.002146
v  -0.129093 -0.055959 -0.00214601
v  -0.133407 -0.043058 -0.00214601
v  -0.133407 -0.043058 0.053797
v  -0.137721 -0.025829 -0.002146
v  -0.133407 -0.043058 -0.00214601
v  -0.129093 -0.055959 -0.00214601
v  -0.133407 -0.043058 0.053797
v  -0.133407 -0.043058 -0.00214601
v  -0.06456 -0.124806 0.053797
v  -0.055959 -0.129093 -0.00214602
v  -0.055959 -0.129093 0.053797
v  -0.043058 -0.133407 0.053797
v  -0.06456 -0.124806 0.053797
v  -0.055959 -0.129093 0.053797
v  -0.055959 -0.129093 -0.00214602
v  -0.043058 -0.133407 0.053797
v  -0.055959 -0.129093 0.053797
v  -0.129093 -0.055959 -0.00214601
v  -0.124806 -0.06456 0.053797
v  -0.129093 -0.055959 0.053797
v  -0.133407 -0.043058 0.053797
v  -0.129093 -0.055959 -0.00214601
v  -0.129093 -0.055959 0.053797

# 0 UV coordinates

# 156 vertex normals
vn 6.39575e-06 8.82916e-07 1
vn 6.39575e-06 8.82916e-07 1
vn 6.39575e-06 8.82916e-07 1
vn 0 1.62258e-07 -1
vn 0 1.62258e-07 -1
vn 0 1.62258e-07 -1
vn -1 6.44535e-07 0
vn -1 6.44535e-07 0
vn -1 6.44535e-07 0
vn 0 1 1.62921e-07
vn 0 1 1.62921e-07
vn 0 1 1.62921e-07
vn 0 1.62258e-07 -1
vn 0 1.62258e-07 -1
vn -3.06888e-09 1.62297e-07 -1
vn 1 0 0
vn 1 0 0
vn 1 0 0
vn 0 1 1.62921e-07
vn 0 1 1.62921e-07
vn -3.90314e-15 1 1.62921e-07
vn 2.12777e-07 -1.30751e-07 1
vn 2.12777e-07 -1.30751e-07 1
vn 2.12777e-07 -1.30751e-07 1
vn 1 0 0
vn 1 0 0
vn 1 0 0
vn 0 1.62258e-07 -1
vn -3.06888e-09 1.62297e-07 -1
vn 0 1.62331e-07 -1
vn 2.12777e-07 -1.30751e-07 1
vn 2.12777e-07 -1.30751e-07 1
vn 6.39575e-06 8.82916e-07 1
vn 0 1.62331e-07 -1
vn -3.06888e-09 1.62297e-07 -1
vn -6.3409e-09 1.62486e-07 -1
vn 2.12777e-07 -1.30751e-07 1
vn 6.39575e-06 8.82916e-07 1
vn -9.00014e-07 -3.71756e-07 1
vn 2.12777e-07 -1.30751e-07 1
vn 2.12777e-07 -1.30751e-07 1
vn 0 -2.88447e-07 1
vn 0 -1 -3.22268e-07
vn 0 -1 -3.22268e-07
vn 0 -1 -3.22268e-07
vn -3.90314e-15 1 1.62921e-07
vn 0 1 1.62921e-07
vn 0 1 1.62921e-07
vn 2.12777e-07 -1.30751e-07 1
vn 2.12777e-07 -1.30751e-07 1
vn 0 -1.62297e-07 1
vn 0 1.62258e-07 -1
vn 0 1.62331e-07 -1
vn 4.14233e-08 1.62209e-07 -1
vn -1 6.44535e-07 0
vn -1 6.44535e-07 0
vn -1 0 0
vn 6.39575e-06 8.82916e-07 1
vn 2.12777e-07 -1.30751e-07 1
vn 6.97972e-07 -1.44229e-07 1
vn 1 0 0
vn 1 0 0
vn 1 0 0
vn 0.0434592 0.043459 0.99811
vn 0.0434592 0.043459 0.99811
vn 0.0434592 0.043459 0.99811
vn 0 -1.62297e-07 1
vn 2.12777e-07 -1.30751e-07 1
vn -1.21405e-07 -1.92233e-07 1
vn 0 1.62331e-07 -1
vn -6.3409e-09 1.62486e-07 -1
vn 0 1.62579e-07 -1
vn -0.707107 -0.707107 0
vn -0.707107 -0.707107 0
vn -0.707107 -0.707107 0
vn -0.555087 -0.831792 -2.68195e-07
vn -0.555087 -0.831792 -2.68195e-07
vn -0.555087 -0.831792 -2.68195e-07
vn -6.3409e-09 1.62486e-07 -1
vn -3.06888e-09 1.62297e-07 -1
vn 0 1.61913e-07 -1
vn 0 -1 -3.22268e-07
vn 0 -1 -3.22268e-07
vn 0 -1 0
vn -0.831792 -0.555087 0
vn -0.831792 -0.555087 0
vn -0.831792 -0.555087 0
vn -0.707107 -0.707107 0
vn -0.707107 -0.707107 0
vn -0.707107 -0.707107 -1.7108e-07
vn -9.00014e-07 -3.71756e-07 1
vn 6.39575e-06 8.82916e-07 1
vn -1.57605e-06 6.56076e-10 1
vn -4.20069e-06 -2.88134e-07 1
vn 6.97972e-07 -1.44229e-07 1
vn -4.20069e-06 -2.88134e-07 1
vn -0.970053 -0.242894 -2.92914e-08
vn -0.970053 -0.242894 -2.92914e-08
vn -0.970053 -0.242894 -2.92914e-08
vn 0 -2.88447e-07 1
vn 2.12777e-07 -1.30751e-07 1
vn 1.05015e-06 -1.15795e-06 1
vn -0.242894 -0.970053 -4.68662e-07
vn -0.242894 -0.970053 -4.68662e-07
vn -0.242894 -0.970053 -4.68662e-07
vn -0.831792 -0.555087 0
vn -0.831792 -0.555087 0
vn -0.831792 -0.555087 -1.34097e-07
vn 4.14233e-08 1.62209e-07 -1
vn 0 1.62331e-07 -1
vn -1.94002e-07 1.62662e-07 -1
vn -0.894988 -0.44609 0
vn -0.894988 -0.44609 0
vn -0.894988 -0.44609 0
vn -0.44609 -0.894988 0
vn -0.44609 -0.894988 0
vn -0.44609 -0.894988 0
vn -0.555087 -0.831792 -2.68195e-07
vn -0.555087 -0.831792 -2.68195e-07
vn -0.555087 -0.831792 -2.68195e-07
vn 0 1.62579e-07 -1
vn -6.3409e-09 1.62486e-07 -1
vn 1.455e-07 1.59942e-07 -1
vn -6.3409e-09 1.62486e-07 -1
vn 0 1.61913e-07 -1
vn 0 1.61912e-07 -1
vn -0.317131 -0.948382 -3.05953e-07
vn -0.317131 -0.948382 -3.05953e-07
vn -0.317131 -0.948382 -3.05953e-07
vn -0.242894 -0.970053 -4.68662e-07
vn -0.242894 -0.970053 -4.68662e-07
vn -0.242894 -0.970053 0
vn 0 1.62258e-07 -1
vn 4.14233e-08 1.62209e-07 -1
vn 1.94849e-07 1.61389e-07 -1
vn -0.970053 -0.242894 -2.92914e-08
vn -0.970053 -0.242894 -2.92914e-08
vn -0.970053 -0.242894 -2.92914e-08
vn -0.948381 -0.317132 -3.82441e-08
vn -0.948381 -0.317132 -3.82441e-08
vn -0.948381 -0.317132 -3.82441e-08
vn -0.44609 -0.894988 0
vn -0.44609 -0.894988 0
vn -0.44609 -0.894988 -4.33074e-07
vn 1.05015e-06 -1.15795e-06 1
vn 2.12777e-07 -1.30751e-07 1
vn 1.59892e-06 -2.64033e-06 1
vn -0.317131 -0.948382 -3.05953e-07
vn -0.317131 -0.948382 -3.05953e-07
vn -0.317131 -0.948382 -6.11905e-07
vn -0.894988 -0.44609 0
vn -0.894988 -0.44609 0
vn -0.894988 -0.446089 -1.08269e-07
vn -0.948381 -0.317132 -3.82441e-08
vn -0.948381 -0.317132 -3.82441e-08
vn -0.948382 -0.317131 -3.82441e-08

# Mesh '<STL_BINARY>' with 52 faces
g <STL_BINARY>

f  1//1 2//2 3//3
f  4//4 5//5 6//6
f  7//7 8//8 9//9
f  10//10 11//11 12//12
f  13//13 14//14 15//15
f  16//16 17//17 18//18
f  19//19 20//20 21//21
f  22//22 23//23 24//24
f  25//25 26//26 27//27
f  28//28 29//29 30//30
f  31//31 32//32 33//33
f  34//34 35//35 36//36
f  37//37 38//38 39//39
f  40//40 41//41 42//42
f  43//43 44//44 45//45
f  46//46 47//47 48//48
f  49//49 50//50 51//51
f  52//52 53//53 54//54
f  55//55 56//56 57//57
f  58//58 59//59 60//60
f  61//61 62//62 63//63
f  64//64 65//65 66//66
f  67//67 68//68 69//69
f  70//70 71//71 72//72
f  73//73 74//74 75//75
f  76//76 77//77 78//78
f  79//79 80//80 81//81
f  82//82 83//83 84//84
f  85//85 86//86 87//87
f  88//88 89//89 90//90
f  91//91 92//92 93//93
f  94//94 95//95 96//96
f  97//97 98//98 99//99
f  100//100 101//101 102//102
f  103//103 104//104 105//105
f  106//106 107//107 108//108
f  109//109 110//110 111//111
f  112//112 113//113 114//114
f  115//115 116//116 117//117
f  118//118 119//119 120//120
f  121//121 122//122 123//123
f  124//124 125//125 126//126
f  127//127 128//128 129//129
f  130//130 131//131 132//132
f  133//133 134//134 135//135
f  136//136 137//137 138//138
f  139//139 140//140 141//141
f  142//142 143//143 144//144
f  145//145 146//146 147//147
f  148//148 149//149 150//150
f  151//151 152//152 153//153
f  154//154 155//155 156//156
