# File produced by Open Asset Import Library (http://www.assimp.sf.net)
# (assimp v3.0.1262)

mtllib 9.stl.obj.mtl

# 156 vertex positions
v  0.137721 0.025832 0.139864
v  0.133405 0.043053 0.053814
v  0.133405 0.043053 0.139864
v  0.129102 0.055963 0.139864
v  0.073164 0.116202 0.139864
v  0.133405 -2.27867e-08 0.139864
v  0.137721 0.025832 0.053814
v  0.073164 0.116202 0.053814
v  0.107591 0.090359 0.053814
v  0.073164 0.116202 0.139864
v  0.073164 0.116202 0.053814
v  0.073164 0.08176 0.12695
v  0.073164 0.116202 0.053814
v  0.137721 0.025832 0.053814
v  0.073164 0.060239 0.053814
v  0.073164 0.08176 0.12695
v  0.073164 0.116202 0.053814
v  0.073164 0.060239 0.053814
v  0.098997 -1.08701e-08 0.06672
v  0.133405 -2.27867e-08 0.139864
v  0.111888 -2.13842e-08 0.131255
v  0.073164 0.08176 0.12695
v  0.098997 -1.08701e-08 0.06672
v  0.111888 -2.13842e-08 0.131255
v  0.133405 -2.27867e-08 0.139864
v  0.098997 -1.08701e-08 0.06672
v  0.137721 -8.76741e-09 0.053814
v  0.073164 0.060239 0.053814
v  0.137721 0.025832 0.053814
v  0.137721 -8.76741e-09 0.053814
v  0.073164 0.116202 0.139864
v  0.129102 0.055963 0.139864
v  0.09039 0.107592 0.139864
v  0.129102 0.055963 0.139864
v  0.133405 -2.27867e-08 0.139864
v  0.137721 0.025832 0.139864
v  0.137721 -8.76741e-09 0.053814
v  0.137721 0.025832 0.053814
v  0.137721 0.025832 0.139864
v  0.137721 0.025832 0.053814
v  0.107591 0.090359 0.053814
v  0.129102 0.055963 0.053814
v  0.098997 -1.08701e-08 0.06672
v  0.073164 0.060239 0.053814
v  0.098997 -8.76741e-09 0.053814
v  0.137721 -8.76741e-09 0.053814
v  0.098997 -1.08701e-08 0.06672
v  0.098997 -8.76741e-09 0.053814
v  0.073164 0.060239 0.053814
v  0.137721 -8.76741e-09 0.053814
v  0.098997 -8.76741e-09 0.053814
v  0.09039 0.107592 0.139864
v  0.129102 0.055963 0.139864
v  0.107591 0.090359 0.139864
v  0.107591 0.090359 0.053814
v  0.09039 0.107592 0.139864
v  0.107591 0.090359 0.139864
v  0.107591 0.090359 0.053814
v  0.073164 0.116202 0.053814
v  0.09039 0.107592 0.053814
v  0.09039 0.107592 0.139864
v  0.107591 0.090359 0.053814
v  0.09039 0.107592 0.053814
v  0.133405 -2.27867e-08 0.139864
v  0.137721 -8.76741e-09 0.053814
v  0.137721 -2.27867e-08 0.139864
v  0.137721 0.025832 0.139864
v  0.133405 -2.27867e-08 0.139864
v  0.137721 -2.27867e-08 0.139864
v  0.137721 -8.76741e-09 0.053814
v  0.137721 0.025832 0.139864
v  0.137721 -2.27867e-08 0.139864
v  0.133405 -2.27867e-08 0.139864
v  0.073164 0.116202 0.139864
v  0.073164 0.107592 0.139864
v  0.073164 0.116202 0.139864
v  0.073164 0.08176 0.12695
v  0.073164 0.107592 0.139864
v  0.073164 0.116202 0.053814
v  0.073164 0.116202 0.139864
v  0.077474 0.116202 0.053814
v  0.09039 0.107592 0.053814
v  0.073164 0.116202 0.053814
v  0.077474 0.116202 0.053814
v  0.09039 0.107592 0.139864
v  0.09039 0.107592 0.053814
v  0.077474 0.116202 0.053814
v  0.129102 0.055963 0.139864
v  0.129102 0.055963 0.053814
v  0.124805 0.064539 0.053814
v  0.129102 0.055963 0.053814
v  0.107591 0.090359 0.053814
v  0.124805 0.064539 0.053814
v  0.107591 0.090359 0.053814
v  0.107591 0.090359 0.139864
v  0.124805 0.064539 0.053814
v  0.073164 0.116202 0.139864
v  0.09039 0.107592 0.139864
v  0.077474 0.116202 0.139864
v  0.077474 0.116202 0.053814
v  0.073164 0.116202 0.139864
v  0.077474 0.116202 0.139864
v  0.09039 0.107592 0.139864
v  0.077474 0.116202 0.053814
v  0.077474 0.116202 0.139864
v  0.137721 0.025832 0.139864
v  0.137721 0.025832 0.053814
v  0.133405 0.043053 0.053814
v  0.129102 0.055963 0.053814
v  0.129102 0.055963 0.139864
v  0.133405 0.043053 0.053814
v  0.137721 0.025832 0.053814
v  0.129102 0.055963 0.053814
v  0.133405 0.043053 0.053814
v  0.107591 0.090359 0.139864
v  0.129102 0.055963 0.139864
v  0.124805 0.064539 0.139864
v  0.129102 0.055963 0.139864
v  0.124805 0.064539 0.053814
v  0.124805 0.064539 0.139864
v  0.124805 0.064539 0.053814
v  0.107591 0.090359 0.139864
v  0.124805 0.064539 0.139864
v  0.098997 -1.08701e-08 0.06672
v  0.073164 0.08176 0.12695
v  0.073164 0.060239 0.05811
v  0.073164 0.060239 0.053814
v  0.098997 -1.08701e-08 0.06672
v  0.073164 0.060239 0.05811
v  0.073164 0.08176 0.12695
v  0.073164 0.060239 0.053814
v  0.073164 0.060239 0.05811
v  0.073164 0.08176 0.12695
v  0.111888 -2.13842e-08 0.131255
v  0.073164 0.094681 0.13556
v  0.073164 0.107592 0.139864
v  0.073164 0.08176 0.12695
v  0.073164 0.094681 0.13556
v  0.111888 -2.13842e-08 0.131255
v  0.073164 0.107592 0.139864
v  0.073164 0.094681 0.13556
v  0.111888 -2.13842e-08 0.131255
v  0.133405 -2.27867e-08 0.139864
v  0.120495 -2.20855e-08 0.13556
v  0.133405 -2.27867e-08 0.139864
v  0.073164 0.107592 0.139864
v  0.120495 -2.20855e-08 0.13556
v  0.073164 0.107592 0.139864
v  0.111888 -2.13842e-08 0.131255
v  0.120495 -2.20855e-08 0.13556
v  0.129102 0.055963 0.139864
v  0.137721 0.025832 0.139864
v  0.133405 0.043053 0.139864
v  0.133405 0.043053 0.053814
v  0.129102 0.055963 0.139864
v  0.133405 0.043053 0.139864

# 0 UV coordinates

# 156 vertex normals
vn 0.97 0.243105 3.81016e-08
vn 0.97 0.243105 3.81016e-08
vn 0.97 0.243105 3.81016e-08
vn 0 -2.90306e-07 1
vn 0 -2.90306e-07 1
vn 0 -2.90306e-07 1
vn -3.22743e-07 1.88872e-07 -1
vn -3.22743e-07 1.88872e-07 -1
vn -3.22743e-07 1.88872e-07 -1
vn -1 0 0
vn -1 0 0
vn -1 0 0
vn -3.22743e-07 1.88872e-07 -1
vn -3.22743e-07 1.88872e-07 -1
vn 0 1.33134e-07 -1
vn -1 0 0
vn -1 0 0
vn -1 -4.16266e-07 0
vn 4.34488e-14 -1 -1.62921e-07
vn 4.34488e-14 -1 -1.62921e-07
vn 4.34488e-14 -1 -1.62921e-07
vn -0.892866 -0.413497 0.178352
vn -0.892866 -0.413497 0.178352
vn -0.892866 -0.413497 0.178352
vn 4.34488e-14 -1 -1.62921e-07
vn 4.34488e-14 -1 -1.62921e-07
vn -8.47111e-15 -1 -1.62921e-07
vn 0 1.33134e-07 -1
vn -3.22743e-07 1.88872e-07 -1
vn 0 1.44212e-07 -1
vn 0 -2.90306e-07 1
vn 0 -2.90306e-07 1
vn 1.67489e-06 0 1
vn 0 -2.90306e-07 1
vn 0 -2.90306e-07 1
vn -2.64062e-06 -1.82349e-07 1
vn 1 0 0
vn 1 0 0
vn 1 0 0
vn -3.22743e-07 1.88872e-07 -1
vn -3.22743e-07 1.88872e-07 -1
vn 1.32407e-06 4.52617e-08 -1
vn -0.919055 -0.394129 -1.3762e-07
vn -0.919055 -0.394129 -1.3762e-07
vn -0.919055 -0.394129 -1.3762e-07
vn -8.47111e-15 -1 -1.62921e-07
vn 4.34488e-14 -1 -1.62921e-07
vn 0 -1 -1.62921e-07
vn 0 1.33134e-07 -1
vn 0 1.44212e-07 -1
vn 0 1.85526e-07 -1
vn 1.67489e-06 0 1
vn 0 -2.90306e-07 1
vn 0 0 1
vn 0.707764 0.706449 2.22253e-07
vn 0.707764 0.706449 2.22253e-07
vn 0.707764 0.706449 2.22253e-07
vn -3.22743e-07 1.88872e-07 -1
vn -3.22743e-07 1.88872e-07 -1
vn 0 4.31393e-07 -1
vn 0.707764 0.706449 2.22253e-07
vn 0.707764 0.706449 2.22253e-07
vn 0.707763 0.70645 1.11126e-07
vn 4.34488e-14 -1 -1.62921e-07
vn -8.47111e-15 -1 -1.62921e-07
vn 0 -1 -1.62921e-07
vn -2.64062e-06 -1.82349e-07 1
vn 0 -2.90306e-07 1
vn 0 0 1
vn 1 0 0
vn 1 0 0
vn 1 0 0
vn 0 -2.90306e-07 1
vn 0 -2.90306e-07 1
vn -1.79558e-06 0 1
vn -1 0 0
vn -1 0 0
vn -1 0 0
vn 0 1 3.13894e-07
vn 0 1 3.13894e-07
vn 0 1 3.13894e-07
vn 0 4.31393e-07 -1
vn -3.22743e-07 1.88872e-07 -1
vn 0 0 -1
vn 0.55467 0.83207 1.7431e-07
vn 0.55467 0.83207 1.7431e-07
vn 0.55467 0.83207 1.7431e-07
vn 0.894053 0.447962 7.05192e-08
vn 0.894053 0.447962 7.05192e-08
vn 0.894053 0.447962 7.05192e-08
vn 1.32407e-06 4.52617e-08 -1
vn -3.22743e-07 1.88872e-07 -1
vn 6.34784e-06 1.31192e-06 -1
vn 0.83204 0.554716 8.71921e-08
vn 0.83204 0.554716 8.71921e-08
vn 0.83204 0.554716 8.71921e-08
vn 0 -2.90306e-07 1
vn 1.67489e-06 0 1
vn 0 0 1
vn 0 1 3.13894e-07
vn 0 1 3.13894e-07
vn 0 1 0
vn 0.55467 0.83207 1.7431e-07
vn 0.55467 0.83207 1.7431e-07
vn 0.55467 0.83207 1.7431e-07
vn 0.97 0.243105 3.81016e-08
vn 0.97 0.243105 3.81015e-08
vn 0.97 0.243105 3.81016e-08
vn 0.948691 0.316206 4.97082e-08
vn 0.948691 0.316206 4.97082e-08
vn 0.948691 0.316206 4.97082e-08
vn -3.22743e-07 1.88872e-07 -1
vn 1.32407e-06 4.52617e-08 -1
vn 0 8.72031e-07 -1
vn 0 0 1
vn 0 -2.90306e-07 1
vn 0 0 1
vn 0.894053 0.447962 7.05192e-08
vn 0.894053 0.447962 7.05192e-08
vn 0.89405 0.447966 7.0519e-08
vn 0.83204 0.554716 8.71921e-08
vn 0.83204 0.554716 8.71921e-08
vn 0.83204 0.554715 8.71922e-08
vn -0.918639 -0.377101 0.11789
vn -0.918639 -0.377101 0.11789
vn -0.918639 -0.377101 0.11789
vn -0.919055 -0.394129 -1.3762e-07
vn -0.919055 -0.394129 -1.3762e-07
vn -0.919055 -0.39413 -4.13438e-07
vn -1 1.38508e-05 0
vn -1 1.38508e-05 0
vn -1 1.38508e-05 0
vn -0.784081 -0.344169 0.516493
vn -0.784081 -0.344169 0.516493
vn -0.784081 -0.344169 0.516493
vn -1 0 0
vn -1 0 0
vn -1 -2.09561e-06 0
vn -0.555334 -0.263002 0.788945
vn -0.555334 -0.263002 0.788945
vn -0.555334 -0.263002 0.788945
vn 4.34488e-14 -1 -1.62921e-07
vn 4.34488e-14 -1 -1.62921e-07
vn 0 -1 -1.62919e-07
vn -0.311427 -0.174368 0.934135
vn -0.311427 -0.174368 0.934135
vn -0.311427 -0.174368 0.934135
vn -0.43571 -0.226522 0.871117
vn -0.43571 -0.226522 0.871117
vn -0.43571 -0.226522 0.871117
vn 2.53321e-05 3.49865e-06 1
vn 2.53321e-05 3.49865e-06 1
vn 2.53321e-05 3.49865e-06 1
vn 0.948691 0.316206 4.97082e-08
vn 0.948691 0.316206 4.97082e-08
vn 0.948691 0.316205 7.45623e-08

# Mesh '<STL_BINARY>' with 52 faces
g <STL_BINARY>
usemtl DefaultMaterial
f  1//1 2//2 3//3
f  4//4 5//5 6//6
f  7//7 8//8 9//9
f  10//10 11//11 12//12
f  13//13 14//14 15//15
f  16//16 17//17 18//18
f  19//19 20//20 21//21
f  22//22 23//23 24//24
f  25//25 26//26 27//27
f  28//28 29//29 30//30
f  31//31 32//32 33//33
f  34//34 35//35 36//36
f  37//37 38//38 39//39
f  40//40 41//41 42//42
f  43//43 44//44 45//45
f  46//46 47//47 48//48
f  49//49 50//50 51//51
f  52//52 53//53 54//54
f  55//55 56//56 57//57
f  58//58 59//59 60//60
f  61//61 62//62 63//63
f  64//64 65//65 66//66
f  67//67 68//68 69//69
f  70//70 71//71 72//72
f  73//73 74//74 75//75
f  76//76 77//77 78//78
f  79//79 80//80 81//81
f  82//82 83//83 84//84
f  85//85 86//86 87//87
f  88//88 89//89 90//90
f  91//91 92//92 93//93
f  94//94 95//95 96//96
f  97//97 98//98 99//99
f  100//100 101//101 102//102
f  103//103 104//104 105//105
f  106//106 107//107 108//108
f  109//109 110//110 111//111
f  112//112 113//113 114//114
f  115//115 116//116 117//117
f  118//118 119//119 120//120
f  121//121 122//122 123//123
f  124//124 125//125 126//126
f  127//127 128//128 129//129
f  130//130 131//131 132//132
f  133//133 134//134 135//135
f  136//136 137//137 138//138
f  139//139 140//140 141//141
f  142//142 143//143 144//144
f  145//145 146//146 147//147
f  148//148 149//149 150//150
f  151//151 152//152 153//153
f  154//154 155//155 156//156

